<svg xmlns="http://www.w3.org/2000/svg" width="24" height="25" viewBox="0 0 24 25" fill="none">
  <path d="M19.8695 8.02424L10.5142 18.3558C10.4314 18.4481 10.3186 18.5 10.2009 18.5C10.0832 18.5 9.97045 18.4481 9.88759 18.3558L5.13053 13.1023C5.04699 13.0108 5 12.8863 5 12.7563C5 12.6264 5.04699 12.5018 5.13053 12.4103L5.74833 11.728C5.83119 11.6358 5.94398 11.5839 6.06164 11.5839C6.17931 11.5839 6.2921 11.6358 6.37496 11.728L10.1965 15.9484L18.625 6.6402C18.7996 6.45327 19.0771 6.45327 19.2517 6.6402L19.8695 7.33222C19.953 7.42372 20 7.54829 20 7.67823C20 7.80817 19.953 7.93273 19.8695 8.02424Z" fill="#111111"/>
</svg>