<svg xmlns="http://www.w3.org/2000/svg" width="22" height="22" viewBox="0 0 22 22" fill="none">
  <path d="M10.0847 11.9141L10.0782 17.4819C10.0782 17.7261 10.1752 17.9602 10.3478 18.1328C10.5204 18.3054 10.7545 18.4024 10.9986 18.4024C11.2427 18.4024 11.4768 18.3054 11.6494 18.1328C11.8221 17.9602 11.919 17.7261 11.919 17.4819L11.9126 11.9141L17.4804 11.9205C17.7245 11.9205 17.9587 11.8236 18.1313 11.651C18.3039 11.4784 18.4008 11.2442 18.4008 11.0001C18.4008 10.756 18.3039 10.5219 18.1313 10.3493C17.9587 10.1767 17.7245 10.0797 17.4804 10.0797L11.9126 10.0862L11.919 4.51832C11.9195 4.39731 11.8961 4.2774 11.85 4.1655C11.8039 4.05361 11.7361 3.95195 11.6506 3.86638C11.565 3.78081 11.4633 3.71303 11.3514 3.66695C11.2395 3.62087 11.1196 3.5974 10.9986 3.5979C10.8776 3.5974 10.7577 3.62087 10.6458 3.66695C10.5339 3.71303 10.4322 3.78081 10.3467 3.86638C10.2611 3.95195 10.1933 4.05361 10.1473 4.1655C10.1012 4.2774 10.0777 4.39731 10.0782 4.51832L10.0847 10.0862L4.51681 10.0797C4.39579 10.0792 4.27588 10.1027 4.16399 10.1488C4.0521 10.1948 3.95043 10.2626 3.86487 10.3482C3.7793 10.4338 3.71152 10.5354 3.66544 10.6473C3.61936 10.7592 3.59589 10.8791 3.59639 11.0001C3.59589 11.1211 3.61936 11.2411 3.66544 11.3529C3.71152 11.4648 3.7793 11.5665 3.86487 11.6521C3.95043 11.7376 4.0521 11.8054 4.16399 11.8515C4.27588 11.8976 4.3958 11.921 4.5168 11.9205L10.0847 11.9141Z" fill="#6B6D81"/>
</svg>